<svg width="192" height="52" viewBox="0 0 192 52" fill="none" xmlns="http://www.w3.org/2000/svg">
<g clip-path="url(#clip0_1_21809)">
<path d="M37.3168 22.9259C37.3372 24.3404 37.1446 25.7499 36.7454 27.1059C36.3964 28.2609 35.8739 29.3549 35.1964 30.3499C34.5696 31.2634 33.8098 32.0761 32.9426 32.7605C31.3361 34.0295 29.4611 34.9071 27.4638 35.3249C26.5845 35.5099 25.6892 35.6065 24.791 35.6134H9.47829V28.76H24.791C25.5989 28.7041 26.3934 28.5224 27.1464 28.2214C27.818 27.9533 28.4323 27.5571 28.9557 27.0546C29.4673 26.5533 29.8676 25.948 30.1302 25.2788C30.4202 24.5295 30.5625 23.7302 30.5492 22.9259V19.823C30.4722 19.0128 30.2864 18.2169 29.9969 17.4573C29.7443 16.7746 29.3602 16.1492 28.8668 15.6173C28.3799 15.098 27.7891 14.6893 27.1337 14.4184C26.3898 14.1153 25.593 13.967 24.791 13.9825H9.55447C9.18286 13.9352 8.80546 13.9739 8.45085 14.0957C8.09624 14.2174 7.7737 14.419 7.50763 14.6853C7.24157 14.9515 7.03895 15.2753 6.91512 15.6323C6.79128 15.9892 6.74946 16.37 6.79284 16.7457V44.8773H-0.000139611V16.7457C-0.048836 15.1938 0.27804 13.6534 0.952147 12.2579C1.52316 11.1077 2.33044 10.0936 3.32016 9.28319C4.23788 8.54598 5.28447 7.98926 6.40557 7.64197C7.39955 7.32055 8.43476 7.14776 9.47829 7.12908H24.791C26.1843 7.11007 27.572 7.30904 28.9049 7.7189C30.0491 8.08109 31.1338 8.61257 32.1237 9.29602C33.0225 9.9293 33.8209 10.6967 34.4917 11.5719C35.128 12.4052 35.669 13.3085 36.1042 14.2646C36.52 15.1723 36.831 16.1252 37.0311 17.1047C37.2143 17.9926 37.31 18.8967 37.3168 19.8037V22.9259Z" fill="#DA291C"/>
<path d="M49.9189 44.8773H43.1514V7.14832H49.9189V44.8773Z" fill="#DA291C"/>
<path d="M93.7176 33.7606C93.7331 34.9934 93.5618 36.2214 93.2097 37.402C92.9017 38.4132 92.4505 39.3742 91.8702 40.255C91.3334 41.0565 90.6733 41.7664 89.9148 42.3578C89.1991 42.9187 88.4215 43.3941 87.5976 43.7746C86.8204 44.1385 86.0046 44.4117 85.1661 44.5888C84.4008 44.7593 83.6198 44.8474 82.8362 44.8517H56.7181V38.0175H82.8362C83.393 38.0517 83.9506 37.9665 84.4725 37.7677C84.9944 37.5688 85.4688 37.2606 85.8644 36.8635C86.6162 36.0136 87.0062 34.8988 86.95 33.7606C86.9582 33.1683 86.8592 32.5795 86.658 32.0232C86.4791 31.5168 86.2005 31.0523 85.839 30.6576C85.4756 30.2657 85.0313 29.9593 84.5376 29.7601C83.9963 29.5438 83.4182 29.4371 82.8362 29.4459H67.2631C66.0599 29.4268 64.8662 29.228 63.7206 28.8561C62.4339 28.4466 61.2361 27.794 60.1908 26.9328C59.0536 25.996 58.1309 24.8215 57.4863 23.4901C56.7705 21.852 56.4009 20.0812 56.4009 18.2907C56.4009 16.5002 56.7705 14.7295 57.4863 13.0914C58.1377 11.7643 59.0593 10.5912 60.1908 9.64863C61.235 8.78578 62.4331 8.13291 63.7206 7.72531C64.8662 7.35339 66.0599 7.15463 67.2631 7.1355H90.2894V13.9697H67.244C66.6876 13.9382 66.131 14.0279 65.6118 14.2325C65.0927 14.4371 64.6231 14.752 64.2348 15.1557C63.4897 16.0194 63.1031 17.14 63.1556 18.2843C63.0949 19.4259 63.4827 20.5456 64.2348 21.4001C64.6296 21.7921 65.1014 22.0962 65.6197 22.2927C66.138 22.4893 66.6913 22.5739 67.244 22.5412H82.8679C83.6484 22.5673 84.4245 22.6704 85.1851 22.849C86.0248 23.0398 86.8405 23.3259 87.6166 23.7016C88.4373 24.0964 89.2105 24.5847 89.9212 25.157C90.6683 25.7643 91.3229 26.4793 91.8638 27.279C92.4516 28.1509 92.9034 29.1088 93.2034 30.1191C93.5569 31.2995 93.7303 32.5274 93.7176 33.7606Z" fill="#DA291C"/>
<path d="M133.638 44.8773H102.752C102.288 44.8832 101.828 44.7937 101.4 44.6145C100.996 44.451 100.629 44.2067 100.32 43.8964C100.011 43.5832 99.7669 43.2104 99.6029 42.8001C99.4273 42.3669 99.3388 41.9027 99.3427 41.4346V7.14832H106.11V38.0175H133.638V44.8773Z" fill="#DA291C"/>
<path d="M166.25 52.0064C180.471 52.0064 192 40.3644 192 26.0032C192 11.642 180.471 0 166.25 0C152.029 0 140.5 11.642 140.5 26.0032C140.5 40.3644 152.029 52.0064 166.25 52.0064Z" fill="white"/>
<path d="M187.365 25.9519L184.826 27.497L179.747 20.6051L180.325 12.9695H183.817C181.379 9.45677 177.927 6.79002 173.932 5.334L174.51 8.27025L166.371 11.2065L158.219 8.27025L158.803 5.334C154.808 6.79002 151.356 9.45677 148.919 12.9695H152.404L152.988 20.5795L147.979 26.7982L145.128 24.7723C145.123 29.061 146.431 33.2463 148.874 36.7545L150.068 34.017L158.391 36.3314L163.469 43.8836L161.393 45.9416C165.493 47.0671 169.836 46.888 173.83 45.4287L170.916 43.4028L175.087 36.652L182.426 34.6197L183.607 37.9342C186.052 34.4262 187.364 30.2415 187.365 25.9519ZM161.393 31.9591L158.308 22.304L166.371 16.4956L174.51 22.3681L171.691 31.9847H161.393V31.9591Z" fill="#212121"/>
</g>
<defs>
<clipPath id="clip0_1_21809">
<rect width="192" height="52" fill="white"/>
</clipPath>
</defs>
</svg>
