<svg width="32" height="32" viewBox="0 0 32 32" fill="none" xmlns="http://www.w3.org/2000/svg">
<path d="M16.1745 31.9623C24.9147 31.9623 31.9999 24.8073 31.9999 15.9811C31.9999 7.155 24.9147 0 16.1745 0C7.4344 0 0.349121 7.155 0.349121 15.9811C0.349121 24.8073 7.4344 31.9623 16.1745 31.9623Z" fill="white"/>
<path d="M29.1517 15.9496L27.591 16.8992L24.4696 12.6636L24.8247 7.97087H26.9706C25.4727 5.81197 23.351 4.17303 20.8956 3.27818L21.2507 5.08276L16.2487 6.88733L11.2388 5.08276L11.5978 3.27818C9.14242 4.17303 7.0207 5.81197 5.52281 7.97087H7.66486L8.02382 12.6478L4.94535 16.4697L3.19348 15.2246C3.19009 17.8604 3.99419 20.4326 5.49549 22.5887L6.22902 20.9063L11.3442 22.3287L14.4656 26.9701L13.1897 28.2349C15.7089 28.9267 18.3782 28.8166 20.8332 27.9197L19.0423 26.6746L21.6057 22.5257L26.1161 21.2767L26.8419 23.3137C28.3443 21.1577 29.151 18.5859 29.1517 15.9496ZM13.1897 19.6415L11.2935 13.7077L16.2487 10.1379L21.2507 13.7471L19.5183 19.6573H13.1897V19.6415Z" fill="#212121"/>
</svg>
