<?xml version="1.0" encoding="utf-8"?>
<!-- Generator: Adobe Illustrator 26.0.0, SVG Export Plug-In . SVG Version: 6.00 Build 0)  -->
<svg version="1.1" id="Layer_1" xmlns="http://www.w3.org/2000/svg" xmlns:xlink="http://www.w3.org/1999/xlink" x="0px" y="0px"
	 viewBox="0 0 37 34" style="enable-background:new 0 0 37 34;" xml:space="preserve">
<style type="text/css">
	.st0{fill-rule:evenodd;clip-rule:evenodd;fill:#DFDFDF;}
</style>
<path class="st0" d="M17.1,3c-1.7,0-3.4,0.3-5,1S9,5.6,7.8,6.8C6.6,8,5.6,9.4,5,11c-0.7,1.6-1,3.3-1,5c0,1.7,0.3,3.4,1,5
	c0.7,1.6,1.6,3,2.8,4.2C7.9,25.3,8,25.3,8,25.4l4-1.6c0.5-0.2,0.9-0.5,1.2-0.9c0.3-0.4,0.5-0.8,0.6-1.3l0.1-0.5
	c-0.5-0.4-0.9-1-1.3-1.5c-1-1.6-1.7-3.8-1.7-5.9c0-2.1,0.6-3.9,1.7-5.1c1.1-1.2,2.6-1.9,4.3-1.9c1.7,0,3.2,0.7,4.3,1.9
	c1.1,1.2,1.7,3,1.7,5.1c0,2.1-0.6,4.3-1.7,5.9c-0.4,0.6-0.8,1.1-1.3,1.5l0.2,2L21,24L20.1,25l-1.4-1.1l-0.1-1.8
	c-0.5,0.3-1.1,0.4-1.7,0.4c-0.6,0-1.2-0.2-1.8-0.4c-0.1,0.7-0.4,1.3-0.8,1.8c-0.5,0.6-1.1,1-1.7,1.3l-3.3,1.3
	c0.9,0.7,1.8,1.2,2.9,1.6c1.6,0.7,3.3,1,5,1l0,1.4c-1.9,0-3.8-0.4-5.6-1.1c-1.8-0.7-3.4-1.8-4.7-3.1c-1.3-1.3-2.4-2.9-3.1-4.7
	C3,19.8,2.6,17.9,2.6,16s0.4-3.8,1.1-5.5c0.7-1.8,1.8-3.3,3.1-4.7c1.3-1.3,2.9-2.4,4.7-3.1c1.8-0.7,3.6-1.1,5.6-1.1
	c3.8,0,7.5,1.5,10.3,4.2c2.7,2.7,4.3,6.4,4.3,10.2h-1.4c0-3.5-1.4-6.8-3.8-9.2C23.9,4.4,20.6,3,17.1,3L17.1,3z M13.6,9.5
	c-0.8,0.9-1.4,2.4-1.4,4.2c0,1.9,0.6,3.8,1.4,5.2c0.9,1.4,2,2.2,3.2,2.2c1.1,0,2.3-0.8,3.2-2.2c0.9-1.4,1.4-3.3,1.4-5.2
	c0-1.9-0.6-3.3-1.4-4.2c-0.8-0.9-2-1.4-3.2-1.4C15.6,8,14.4,8.5,13.6,9.5z M23.5,25.3c0-3.2,2.6-5.7,5.8-5.7c3.2,0,5.8,2.6,5.8,5.7
	c0,3.2-2.6,5.7-5.8,5.7C26,31,23.5,28.4,23.5,25.3z M29.2,18.1c-4,0-7.2,3.2-7.2,7.1c0,3.9,3.2,7.1,7.2,7.1s7.2-3.2,7.2-7.1
	C36.4,21.3,33.2,18.1,29.2,18.1z M28.5,24.7v-2.6h1.4v2.6h2.6v1.4h-2.6v2.6h-1.4v-2.6h-2.6v-1.4H28.5z"/>
</svg>
