<?xml version="1.0" encoding="utf-8"?>
<!-- Generator: Adobe Illustrator 26.0.0, SVG Export Plug-In . SVG Version: 6.00 Build 0)  -->
<svg version="1.1" id="Layer_1" xmlns="http://www.w3.org/2000/svg" xmlns:xlink="http://www.w3.org/1999/xlink" x="0px" y="0px"
	 viewBox="0 0 14 19" style="enable-background:new 0 0 14 19;" xml:space="preserve">
<style type="text/css">
	.st0{fill-rule:evenodd;clip-rule:evenodd;fill:#DFDFDF;}
	.st1{fill:#DFDFDF;}
</style>
<path class="st0" d="M4.6,4c0-1.3,1.1-2.4,2.4-2.4S9.4,2.7,9.4,4S8.3,6.4,7,6.4S4.6,5.3,4.6,4z M7,0C4.8,0,3,1.8,3,4
	c0,2.2,1.8,4,4,4s4-1.8,4-4C11,1.8,9.2,0,7,0z M7,9.6c0.4,0,0.7,0,1.1,0.1c-0.8,0.2-1.5,0.8-1.7,1.6c-1,0.1-2,0.4-2.8,0.9
	c-1,0.6-1.6,1.3-1.9,2.1c-0.1,0.4-0.6,0.6-1,0.5s-0.6-0.6-0.5-1c0.4-1.2,1.4-2.3,2.6-3C3.9,10,5.5,9.6,7,9.6z"/>
<path class="st1" d="M9,12h4c0.6,0,1,0.4,1,1v5c0,0.6-0.4,1-1,1H9c-0.6,0-1-0.4-1-1v-5C8,12.4,8.4,12,9,12z"/>
</svg>
