<?xml version="1.0" encoding="utf-8"?>
<!-- Generator: Adobe Illustrator 26.0.0, SVG Export Plug-In . SVG Version: 6.00 Build 0)  -->
<svg version="1.1" id="Layer_1" xmlns="http://www.w3.org/2000/svg" xmlns:xlink="http://www.w3.org/1999/xlink" x="0px" y="0px"
	 viewBox="0 0 36 47" style="enable-background:new 0 0 36 47;" xml:space="preserve">
<style type="text/css">
	.st0{fill-rule:evenodd;clip-rule:evenodd;fill:#DFDFDF;}
</style>
<path class="st0" d="M14,3.2c0.3-0.3,0.6-0.4,1-0.4h17.8c0.4,0,0.7,0.1,1,0.4c0.3,0.3,0.4,0.6,0.4,1v27c0,0.4-0.1,0.7-0.4,1
	c-0.3,0.3-0.6,0.4-1,0.4H17.4c0.1-0.2,0.2-0.4,0.2-0.6c0.4-1.2,0.5-2.4,0.4-3.6l0-0.3l5.5-7.4c0.6-0.8,0.9-1.9,0.7-2.9
	c-0.1-1-0.7-2-1.5-2.6c-0.8-0.6-1.8-0.9-2.9-0.8s-2,0.6-2.6,1.4L13.6,20V4.2C13.6,3.8,13.8,3.4,14,3.2z M12.2,21.6v-3.8l-8,8v19.5
	h14.4v-4.4l5.2-6.9h-7.2c-0.2,0.4-0.5,0.8-0.8,1.1l-3,3.4l-1-0.9l3-3.4c0.7-0.8,1.2-1.6,1.5-2.6c0.3-1,0.4-2,0.3-3l-0.1-0.9l5.8-7.8
	c0.4-0.5,0.6-1.2,0.5-1.9c-0.1-0.7-0.4-1.3-1-1.7c-0.5-0.4-1.2-0.6-1.8-0.5c-0.7,0.1-1.3,0.4-1.7,0.9L10,26.4l-1.1-0.9L12.2,21.6z
	 M25.6,34h7.2c0.7,0,1.5-0.3,2-0.8c0.5-0.5,0.8-1.2,0.8-2v-27c0-0.7-0.3-1.5-0.8-2c-0.5-0.5-1.2-0.8-2-0.8H15c-0.7,0-1.5,0.3-2,0.8
	c-0.5,0.5-0.8,1.2-0.8,2v11.6l-9.4,9.4v20.1H0v1.4h23.1v-1.4h-3v-3.9L25.6,34z"/>
</svg>
