<?xml version="1.0" encoding="utf-8"?>
<!-- Generator: Adobe Illustrator 26.0.0, SVG Export Plug-In . SVG Version: 6.00 Build 0)  -->
<svg version="1.1" id="Layer_1" xmlns="http://www.w3.org/2000/svg" xmlns:xlink="http://www.w3.org/1999/xlink" x="0px" y="0px"
	 viewBox="0 0 16 16" style="enable-background:new 0 0 16 16;" xml:space="preserve">
<style type="text/css">
	.st0{fill-rule:evenodd;clip-rule:evenodd;fill:#DFDFDF;}
</style>
<path class="st0" d="M2.6,2V0h1.9v2h7V0h1.9v2h0.4c1.8,0,2.1,0.3,2.2,2V14c0,1.4-0.1,2-1.9,2H1.9C0.1,16,0,15.6,0,13.9V4.1
	C0,2.8,0.2,2,2,2H2.6z M1.5,13.6c0,0.5,0.2,0.6,0.5,0.6H14c0.4,0,0.5,0,0.5-0.6V5.5C14.4,5.1,14.3,5,14,5H1.9C1.7,5,1.5,5.1,1.5,5.4
	V13.6z"/>
</svg>
