<?xml version="1.0" encoding="utf-8"?>
<!-- Generator: Adobe Illustrator 26.0.0, SVG Export Plug-In . SVG Version: 6.00 Build 0)  -->
<svg version="1.1" id="Layer_1" xmlns="http://www.w3.org/2000/svg" xmlns:xlink="http://www.w3.org/1999/xlink" x="0px" y="0px"
	 viewBox="0 0 16 16" style="enable-background:new 0 0 16 16;" xml:space="preserve">
<style type="text/css">
	.st0{fill:#DFDFDF;}
</style>
<path class="st0" d="M11.3,5c0.3-0.3,0.7-0.3,0.9,0c0.3,0.3,0.3,0.7,0,0.9l-5,5c-0.3,0.3-0.7,0.3-0.9,0L3.8,8.5
	c-0.3-0.3-0.3-0.7,0-0.9c0.3-0.3,0.7-0.3,0.9,0l2,2L11.3,5z M8,0c2.2,0,4.2,0.9,5.7,2.3C15.1,3.8,16,5.8,16,8c0,2.2-0.9,4.2-2.3,5.7
	C12.2,15.1,10.2,16,8,16c-2.2,0-4.2-0.9-5.7-2.3C0.9,12.2,0,10.2,0,8c0-2.2,0.9-4.2,2.3-5.7C3.8,0.9,5.8,0,8,0z M12.7,3.3
	c-1.2-1.2-2.9-2-4.7-2c-1.8,0-3.5,0.7-4.7,2c-1.2,1.2-2,2.9-2,4.7c0,1.8,0.7,3.5,2,4.7c1.2,1.2,2.9,2,4.7,2c1.8,0,3.5-0.7,4.7-2
	c1.2-1.2,2-2.9,2-4.7C14.7,6.2,13.9,4.5,12.7,3.3z"/>
</svg>
