<?xml version="1.0" encoding="utf-8"?>
<!-- Generator: Adobe Illustrator 26.0.0, SVG Export Plug-In . SVG Version: 6.00 Build 0)  -->
<svg version="1.1" id="Layer_1" xmlns="http://www.w3.org/2000/svg" xmlns:xlink="http://www.w3.org/1999/xlink" x="0px" y="0px"
	 viewBox="0 0 32 47" style="enable-background:new 0 0 32 47;" xml:space="preserve">
<style type="text/css">
	.st0{clip-path:url(#SVGID_00000022530100032526430430000018239299064138502041_);}
	.st1{fill:#DFDFDF;}
</style>
<g>
	<defs>
		<rect id="SVGID_1_" width="32" height="47"/>
	</defs>
	<clipPath id="SVGID_00000054949762974621504400000012988531380229776001_">
		<use xlink:href="#SVGID_1_"  style="overflow:visible;"/>
	</clipPath>
	<g style="clip-path:url(#SVGID_00000054949762974621504400000012988531380229776001_);">
		<path class="st1" d="M30.1,46h-3.6v-5.8c0-0.2-0.1-0.5-0.3-0.7c-0.2-0.2-0.4-0.3-0.7-0.3H23v-3c0-0.2-0.1-0.4-0.2-0.5
			c-0.1-0.1-0.3-0.2-0.5-0.2h-3.2v-4c3.6-0.7,6.9-2.7,9.3-5.5c2.4-2.8,3.7-6.4,3.7-10.1c0-4.2-1.7-8.2-4.7-11.2
			C24.3,1.7,20.2,0,16,0C11.8,0,7.7,1.7,4.7,4.7c-3,3-4.7,7-4.7,11.2c0,3.7,1.3,7.2,3.6,10c2.3,2.8,5.6,4.8,9.2,5.5v4H9.6
			c-0.2,0-0.4,0.1-0.5,0.2C9,35.8,8.9,36,8.9,36.2v3H6.4c-0.3,0-0.5,0.1-0.7,0.3c-0.2,0.2-0.3,0.4-0.3,0.7V46H1.5
			c-0.1,0-0.3,0.1-0.4,0.2C1,46.2,1,46.3,1,46.5c0,0.1,0.1,0.3,0.2,0.4C1.2,46.9,1.4,47,1.5,47h28.6c0.1,0,0.1,0,0.2,0
			c0.1,0,0.1-0.1,0.2-0.1c0,0,0.1-0.1,0.1-0.2c0-0.1,0-0.1,0-0.2c0-0.1,0-0.1,0-0.2c0-0.1-0.1-0.1-0.1-0.2c0,0-0.1-0.1-0.2-0.1
			C30.3,46,30.2,46,30.1,46z M23.4,19.1c2.8,4.9,2.7,7.4,2.7,7.5c0,0,0,0.1,0,0.1c-1.1,1-2.3,1.8-3.6,2.5
			C22.2,28.5,20.1,22.2,23.4,19.1z M27.1,25.8c-0.2-1.2-0.8-3.7-2.9-7.3c3.9-2.7,6.5-1.2,6.6-1.2c0,0,0.1,0,0.1,0
			C30.6,20.5,29.2,23.4,27.1,25.8z M31,15.9c0,0.1,0,0.2,0,0.4c-1-0.4-3.7-1.1-7.3,1.3c-0.7-1.1-1.5-2.3-2.4-3.6
			c2.2-2.8,3.7-6.1,4.3-9.5c1.7,1.4,3,3.1,4,5.1C30.5,11.6,31,13.7,31,15.9z M15,10.6c-3.7,4.9-12.2,2.1-13.5,1.6
			c0.6-2.4,1.8-4.5,3.4-6.4c4.8,0.8,8,2.8,8.1,2.8c0.1,0.1,0.2,0.1,0.3,0.1c0.1,0,0.2,0,0.3-0.1c0.1,0,0.1-0.1,0.2-0.2
			c0.1-0.1,0.1-0.3,0.1-0.4c0-0.1-0.1-0.3-0.2-0.3C13.4,7.8,10.5,5.9,5.8,5C8.6,2.5,12.2,1,16,1h0.1C16.6,1.8,18.6,5.8,15,10.6
			L15,10.6z M1.3,13.3c1,0.3,3.8,1.2,6.9,1.2c2.8,0,5.7-0.7,7.6-3.3c3.4-4.5,2.2-8.5,1.4-10.1c2.7,0.2,5.2,1.2,7.4,2.7
			C22.6,16,10.5,22.1,4.3,25.1c-2.1-2.6-3.3-5.9-3.3-9.3C1.1,15,1.1,14.1,1.3,13.3L1.3,13.3z M5,25.9c4.2-2,10.8-5.4,15.5-11.1
			c0.9,1.2,1.7,2.3,2.3,3.3c-4.2,3.6-1.5,10.8-1.3,11.4c-1.8,0.7-3.6,1.1-5.5,1.1c-2.1,0-4.1-0.4-6-1.2C8.1,28.6,6.4,27.4,5,25.9
			L5,25.9z M13.8,31.6c0.7,0.1,1.5,0.2,2.2,0.2c0.7,0,1.3,0,2-0.1v3.8h-4.2L13.8,31.6z M10,36.5h12v2.7H10V36.5z M6.5,46v-5.7h19V46
			H6.5z"/>
	</g>
</g>
</svg>
