<?xml version="1.0" encoding="utf-8"?>
<!-- Generator: Adobe Illustrator 26.0.0, SVG Export Plug-In . SVG Version: 6.00 Build 0)  -->
<svg version="1.1" id="Layer_1" xmlns="http://www.w3.org/2000/svg" xmlns:xlink="http://www.w3.org/1999/xlink" x="0px" y="0px"
	 viewBox="0 0 14 14" style="enable-background:new 0 0 14 14;" xml:space="preserve">
<style type="text/css">
	.st0{fill:#DFDFDF;}
</style>
<path class="st0" d="M2.1,11.2h3c0.1,0,0.2,0,0.3-0.1c0.1,0,0.2-0.1,0.2-0.2l4.8-4.8l2-1.9c0.1-0.1,0.1-0.1,0.2-0.2
	c0-0.1,0.1-0.2,0.1-0.3c0-0.1,0-0.2-0.1-0.3c0-0.1-0.1-0.2-0.2-0.2l-3-3C9.4,0.1,9.3,0.1,9.2,0.1C9.1,0,9,0,8.9,0S8.7,0,8.7,0.1
	c-0.1,0-0.2,0.1-0.2,0.2l-2,2L1.6,7C1.5,7.1,1.5,7.2,1.5,7.3c0,0.1-0.1,0.2-0.1,0.3v3c0,0.2,0.1,0.4,0.2,0.5
	C1.7,11.1,1.9,11.2,2.1,11.2z M8.9,1.7l2,2l-1,1l-2-2L8.9,1.7z M2.8,7.8L7,3.7l2,2L4.8,9.8h-2V7.8z M13.3,12.6H0.7
	c-0.2,0-0.4,0.1-0.5,0.2C0.1,12.9,0,13.1,0,13.3c0,0.2,0.1,0.4,0.2,0.5C0.3,13.9,0.5,14,0.7,14h12.6c0.2,0,0.4-0.1,0.5-0.2
	c0.1-0.1,0.2-0.3,0.2-0.5c0-0.2-0.1-0.4-0.2-0.5C13.7,12.7,13.5,12.6,13.3,12.6z"/>
</svg>
