<?xml version="1.0" encoding="utf-8"?>
<!-- Generator: Adobe Illustrator 26.0.0, SVG Export Plug-In . SVG Version: 6.00 Build 0)  -->
<svg version="1.1" id="Layer_1" xmlns="http://www.w3.org/2000/svg" xmlns:xlink="http://www.w3.org/1999/xlink" x="0px" y="0px"
	 viewBox="0 0 28 28" style="enable-background:new 0 0 28 28;" xml:space="preserve">
<style type="text/css">
	.st0{fill-rule:evenodd;clip-rule:evenodd;fill:#DFDFDF;}
</style>
<path class="st0" d="M9.9,3.4c-0.2,0-0.4,0.1-0.5,0.2C9.3,3.7,9.2,3.9,9.2,4.1V9H4.3C4.1,9,4,9.1,3.8,9.2C3.7,9.3,3.6,9.5,3.6,9.7
	s0.1,0.4,0.2,0.5c0.1,0.1,0.3,0.2,0.5,0.2h5.6c0.2,0,0.4-0.1,0.5-0.2c0.1-0.1,0.2-0.3,0.2-0.5V4.1c0-0.2-0.1-0.4-0.2-0.5
	S10.1,3.4,9.9,3.4z M27.1,5.9l-1.2-1.2c-0.3-0.3-0.6-0.5-1-0.6s-0.7-0.2-1.1-0.2S23,4,22.7,4.1c-0.3,0.1-0.7,0.4-1,0.6L21,5.4V2.7
	c0-0.7-0.3-1.4-0.8-1.9S19,0,18.3,0h-9C9.1,0,8.9,0.1,8.7,0.2L0.2,8.5C0.1,8.6,0,8.8,0,9v16.2c0,0.7,0.3,1.4,0.8,1.9
	C1.3,27.7,2,28,2.7,28h15.5c0.7,0,1.4-0.3,1.9-0.8s0.8-1.2,0.8-1.9v-9l6.1-6.1c0.3-0.3,0.5-0.6,0.6-1C27.9,8.8,28,8.4,28,8
	s-0.1-0.8-0.2-1.1C27.6,6.5,27.4,6.2,27.1,5.9z M19.6,25.3c0,0.7-0.6,1.3-1.3,1.3H2.7c-0.7,0-1.3-0.6-1.3-1.3v-16l8.1-7.9h8.7
	c0.4,0,0.7,0.1,0.9,0.4c0.3,0.3,0.4,0.6,0.4,0.9v4.1l-5.3,5.3l0,0l0,0l-2.4,2.4l0,0c0,0,0,0-0.1,0.1v0.1c0,0.1,0,0.1-0.1,0.2l0,0
	l-1,5.3c0,0.1,0,0.2,0,0.3c0,0.1,0.1,0.2,0.1,0.3c0.1,0.1,0.1,0.1,0.2,0.2c0.1,0,0.2,0.1,0.3,0.1h0.1l5.4-1l0,0l0,0
	c0.1,0,0.2,0,0.2-0.1c0,0,0.1,0,0.1-0.1l0.1-0.1l2.3-2.3v7.8H19.6z M13.4,15l1.4-1.4l3.4,3.4l-1.4,1.4L13.4,15z M15.4,19l-3.1,0.5
	l0.6-3.1L15.4,19z M21,14.2l-1.4,1.4L19.2,16l-3.4-3.4L21.4,7l3.4,3.4L21,14.2z M26.1,9.1l-0.4,0.4L22.4,6l0.4-0.4
	c0.3-0.3,0.7-0.4,1.1-0.4s0.8,0.2,1.1,0.4l1.2,1.2c0.1,0.1,0.3,0.3,0.3,0.5s0.1,0.4,0.1,0.6c0,0.2,0,0.4-0.1,0.6
	C26.4,8.8,26.3,8.9,26.1,9.1z"/>
</svg>
