<?xml version="1.0" encoding="utf-8"?>
<!-- Generator: Adobe Illustrator 26.0.0, SVG Export Plug-In . SVG Version: 6.00 Build 0)  -->
<svg version="1.1" id="Layer_1" xmlns="http://www.w3.org/2000/svg" xmlns:xlink="http://www.w3.org/1999/xlink" x="0px" y="0px"
	 viewBox="0 0 15.5 15.3" style="enable-background:new 0 0 15.5 15.3;" xml:space="preserve">
<style type="text/css">
	.st0{fill:#DFDFDF;}
</style>
<path class="st0" d="M2.8,4.3c-0.1,0-0.2,0.1-0.2,0.2l1.7,10.2h7L13,4.5c0-0.1-0.1-0.2-0.2-0.2C12.8,4.3,2.8,4.3,2.8,4.3z M13.4,1.9
	c0.1,0,0.2,0.1,0.2,0.2v0.8c0,0.1-0.1,0.2-0.2,0.2H2.2C2.1,3.1,2,3,2,2.9V2.1C2,2,2.1,1.9,2.2,1.9h3.1c0.5,0,1-0.6,1-1.2h3.1
	c0,0.5,0.4,1.2,1,1.2C10.4,1.9,13.4,1.9,13.4,1.9z"/>
</svg>
