<?xml version="1.0" encoding="utf-8"?>
<!-- Generator: Adobe Illustrator 26.0.0, SVG Export Plug-In . SVG Version: 6.00 Build 0)  -->
<svg version="1.1" id="Layer_1" xmlns="http://www.w3.org/2000/svg" xmlns:xlink="http://www.w3.org/1999/xlink" x="0px" y="0px"
	 viewBox="0 0 41 40.2" style="enable-background:new 0 0 41 40.2;" xml:space="preserve">
<style type="text/css">
	.st0{fill:#DFDFDF;}
</style>
<g>
	<path class="st0" d="M21,11.6c2.3,0,4.2-1.9,4.2-4.2S23.3,3.1,21,3.1S16.8,5,16.8,7.3S18.7,11.6,21,11.6z M21,4.1
		c1.8,0,3.2,1.5,3.2,3.2s-1.4,3.2-3.2,3.2S17.8,9,17.8,7.3S19.2,4.1,21,4.1z"/>
	<path class="st0" d="M25.5,27.7v-8.4l1.2,1.3l3.4-3.4l-3.3-3.5c-0.5-0.6-1.2-0.9-2-1.1c-0.8-0.1-1.5,0-2.2,0.3l-0.4,0.2
		c-0.3,0.2-0.7,0.3-1.1,0.3s-0.8-0.1-1.1-0.2l-0.5-0.3c-0.7-0.3-1.4-0.4-2.2-0.3c-0.7,0.1-1.4,0.5-2,1l-3.6,3.6l3.5,3.4l1.3-1.3v8.4
		H25.5z M16.2,18.1l-1.1,1.1l-2-2l2.9-2.9c0.4-0.4,0.9-0.7,1.4-0.7c0.5-0.1,1.1,0,1.6,0.2l0.5,0.3c0.5,0.2,1,0.3,1.5,0.3l0,0
		c0.5,0,1.1-0.1,1.5-0.4l0.4-0.2c0.5-0.2,1.1-0.3,1.6-0.2c0.6,0.1,1.1,0.4,1.4,0.8l2.7,2.8l-2,2l-1-1c-0.1-0.1-0.2-0.2-0.4-0.2
		c-0.1,0-0.3,0-0.4,0c-0.1,0.1-0.2,0.1-0.3,0.3c-0.1,0.1-0.1,0.3-0.1,0.4v8.1h-7.1v-8.1c0-0.1,0-0.3-0.1-0.4S17,18.1,16.9,18
		c-0.1-0.1-0.3-0.1-0.4,0C16.4,17.9,16.3,18,16.2,18.1z"/>
	<polygon class="st0" points="25,28.4 26.4,35.8 21.5,35.8 21.5,32.3 20.5,32.3 20.5,35.8 15.6,35.8 17,28.4 16,28.2 14.4,36.8 
		27.6,36.8 26,28.2 	"/>
	<path class="st0" d="M13.5,30.7l-0.9,4.1h-5l1.3-8.7h6.5v-1H8.8v-6.5c0-0.1,0-0.3-0.1-0.4S8.5,18,8.4,17.9c-0.1-0.1-0.3-0.1-0.4,0
		c-0.1,0-0.3,0.1-0.4,0.2L6.7,19l-1.8-1.9l2.5-2.6c0.4-0.4,0.8-0.6,1.3-0.7s1,0,1.5,0.2l0.4,0.2c0.5,0.2,1,0.3,1.5,0.3
		s1-0.1,1.5-0.3l-0.4-0.9c-0.3,0.2-0.7,0.2-1,0.2c-0.4,0-0.7-0.1-1-0.2l-0.4-0.2c-0.8-0.3-1.5-0.4-2.2-0.3s-1.4,0.5-1.9,1l-3.2,3.3
		l3.2,3.3l1.1-1.1v6.8l0,0l-1.4,9.7h7l1.1-4.9L13.5,30.7z"/>
	<path class="st0" d="M29.8,11.9c2.2,0,4-1.8,4-4s-1.8-4-4-4s-4,1.8-4,4S27.7,11.9,29.8,11.9z M29.8,4.9c1.6,0,3,1.4,3,3s-1.3,3-3,3
		c-1.6,0-3-1.4-3-3S28.2,4.9,29.8,4.9z"/>
	<path class="st0" d="M34.2,26.1v-6.8l1.1,1.1l3.2-3.3l-3.2-3.3c-0.5-0.5-1.2-0.9-1.9-1s-1.5,0-2.1,0.3l-0.4,0.2
		c-0.3,0.2-0.7,0.2-1,0.2s-0.7-0.1-1-0.2l-0.4,0.9c0.5,0.2,1,0.4,1.5,0.3c0.5,0,1-0.1,1.5-0.3l0.4-0.2c0.5-0.2,1-0.3,1.5-0.2
		c0.5,0.1,1,0.3,1.3,0.7l2.5,2.6L35.4,19l-0.9-0.9c-0.1-0.1-0.2-0.2-0.4-0.2c-0.1,0-0.3,0-0.4,0c-0.1,0.1-0.2,0.1-0.3,0.3
		c-0.1,0.1-0.1,0.3-0.1,0.4v6.6h-6.5v1h6.5l1.3,8.7h-5l-0.9-4.1l-1,0.2l1.1,4.9h7L34.2,26.1L34.2,26.1z"/>
	<path class="st0" d="M12.2,11.9c2.2,0,4-1.8,4-4s-1.8-4-4-4s-4,1.8-4,4S10,11.9,12.2,11.9z M12.2,4.9c1.6,0,3,1.4,3,3s-1.3,3-3,3
		s-3-1.4-3-3S10.5,4.9,12.2,4.9z"/>
</g>
</svg>
