<?xml version="1.0" encoding="utf-8"?>
<!-- Generator: Adobe Illustrator 26.0.0, SVG Export Plug-In . SVG Version: 6.00 Build 0)  -->
<svg version="1.1" id="Layer_1" xmlns="http://www.w3.org/2000/svg" xmlns:xlink="http://www.w3.org/1999/xlink" x="0px" y="0px"
	 viewBox="0 0 12.8 10.7" style="enable-background:new 0 0 12.8 10.7;" xml:space="preserve">
<style type="text/css">
	.st0{fill:#DFDFDF;}
</style>
<path class="st0" d="M1.4,0.3h10c0.6,0,1,0.4,1,1l0,0c0,0.6-0.4,1-1,1h-10c-0.6,0-1-0.4-1-1l0,0C0.4,0.8,0.9,0.3,1.4,0.3z"/>
<path class="st0" d="M3.4,4.3h6c0.6,0,1,0.4,1,1l0,0c0,0.6-0.4,1-1,1h-6c-0.6,0-1-0.4-1-1l0,0C2.4,4.8,2.9,4.3,3.4,4.3z"/>
<path class="st0" d="M5.4,8.3h2c0.6,0,1,0.4,1,1l0,0c0,0.6-0.4,1-1,1h-2c-0.6,0-1-0.4-1-1l0,0C4.4,8.8,4.9,8.3,5.4,8.3z"/>
</svg>
