<?xml version="1.0" encoding="utf-8"?>
<!-- Generator: Adobe Illustrator 26.0.0, SVG Export Plug-In . SVG Version: 6.00 Build 0)  -->
<svg version="1.1" id="Layer_1" xmlns="http://www.w3.org/2000/svg" xmlns:xlink="http://www.w3.org/1999/xlink" x="0px" y="0px"
	 viewBox="0 0 37 21" style="enable-background:new 0 0 37 21;" xml:space="preserve">
<style type="text/css">
	.st0{fill:#DFDFDF;}
</style>
<path class="st0" d="M31.8,13.2c0.7-0.5,1.2-1.2,1.5-2.1c0.3-0.8,0.3-1.7,0-2.5C33,7.7,32.5,7,31.7,6.5C31,6,30.2,5.7,29.3,5.7
	c-0.9,0-1.7,0.3-2.5,0.8s-1.2,1.2-1.5,2.1c-0.3,0.8-0.3,1.7,0,2.5c0.3,0.8,0.8,1.6,1.5,2.1l-0.5,0.2c-1.3-1.5-3-2.5-5-3.1
	c1-0.6,1.9-1.6,2.3-2.7c0.4-1.1,0.5-2.4,0.2-3.5c-0.3-1.2-1-2.2-2-2.9c-1-0.7-2.2-1.1-3.4-1.1s-2.4,0.4-3.4,1.1
	c-1,0.7-1.7,1.8-2,2.9s-0.3,2.4,0.2,3.5c0.4,1.1,1.3,2.1,2.3,2.7c-1.9,0.5-3.5,1.6-4.9,3l-0.3-0.1c0.7-0.5,1.2-1.2,1.5-2.1
	c0.3-0.8,0.3-1.7,0-2.5c-0.3-0.8-0.8-1.5-1.5-2C9.5,6,8.6,5.7,7.7,5.7C6.8,5.7,6,6,5.3,6.5C4.6,7,4,7.7,3.8,8.5
	c-0.3,0.8-0.3,1.7,0,2.5c0.3,0.8,0.8,1.6,1.5,2.1c-1.5,0.5-2.8,1.5-3.8,2.8C0.5,17.2,0,18.8,0,20.4c0,0.2,0.1,0.3,0.2,0.4
	C0.3,20.9,0.5,21,0.6,21h35.7c0.2,0,0.3-0.1,0.5-0.2c0.1-0.1,0.2-0.3,0.2-0.4c0-1.6-0.5-3.1-1.4-4.4C34.6,14.7,33.3,13.7,31.8,13.2z
	 M26.4,9.9c0-0.6,0.2-1.1,0.5-1.6c0.3-0.5,0.8-0.8,1.3-1.1C28.7,7,29.3,7,29.8,7.1c0.6,0.1,1.1,0.4,1.5,0.8c0.4,0.4,0.7,0.9,0.8,1.5
	c0.1,0.6,0.1,1.1-0.2,1.7c-0.2,0.5-0.6,1-1.1,1.3c-0.5,0.3-1,0.5-1.6,0.5c-0.4,0-0.8-0.1-1.1-0.2c-0.4-0.1-0.7-0.4-0.9-0.6
	c-0.3-0.3-0.5-0.6-0.6-0.9S26.4,10.3,26.4,9.9z M29.3,14c1.6,0,3.1,0.6,4.3,1.6c1.2,1.1,1.9,2.5,2.1,4.1h-6.7
	c-0.1-1.9-0.8-3.8-1.9-5.3C27.8,14.2,28.5,14,29.3,14L29.3,14z M14,5.6c0-0.9,0.3-1.7,0.7-2.4c0.5-0.7,1.2-1.3,2-1.6
	c0.8-0.3,1.7-0.4,2.5-0.2C20,1.6,20.8,2,21.4,2.6c0.6,0.6,1,1.4,1.2,2.2c0.2,0.8,0.1,1.7-0.2,2.5s-0.9,1.5-1.6,1.9s-1.6,0.7-2.4,0.7
	c-0.6,0-1.1-0.1-1.7-0.3c-0.5-0.2-1-0.5-1.4-0.9c-0.4-0.4-0.7-0.9-0.9-1.4C14.1,6.7,14,6.2,14,5.6L14,5.6z M7.7,7
	c0.6,0,1.1,0.2,1.6,0.5c0.5,0.3,0.9,0.8,1.1,1.3c0.2,0.5,0.3,1.1,0.2,1.7c-0.1,0.6-0.4,1.1-0.8,1.5c-0.4,0.4-0.9,0.7-1.5,0.8
	c-0.6,0.1-1.2,0.1-1.7-0.2c-0.5-0.2-1-0.6-1.3-1.1C5,11,4.8,10.5,4.8,9.9c0-0.8,0.3-1.5,0.8-2C6.2,7.3,6.9,7,7.7,7z M7.7,14
	c0.7,0,1.3,0.1,2,0.3c-1.2,1.6-1.8,3.5-1.9,5.4H1.4c0.1-1.6,0.9-3,2.1-4.1C4.6,14.6,6.1,14,7.7,14z M14.8,19.8H9
	c0.2-2.3,1.2-4.5,2.9-6.1s4-2.5,6.4-2.5c2.4,0,4.7,0.9,6.4,2.5s2.8,3.8,2.9,6.1H14.8z"/>
</svg>
