<?xml version="1.0" encoding="utf-8"?>
<!-- Generator: Adobe Illustrator 26.0.0, SVG Export Plug-In . SVG Version: 6.00 Build 0)  -->
<svg version="1.1" id="Layer_1" xmlns="http://www.w3.org/2000/svg" xmlns:xlink="http://www.w3.org/1999/xlink" x="0px" y="0px"
	 viewBox="0 0 15.5 17.7" style="enable-background:new 0 0 15.5 17.7;" xml:space="preserve">
<style type="text/css">
	.st0{fill-rule:evenodd;clip-rule:evenodd;fill:#DFDFDF;}
</style>
<path class="st0" d="M5,4.8c0.8-0.7,1.3-1.1,1.8-1.4C7.2,3.1,7.5,3,7.7,3C8,3,8.2,3.1,8.7,3.3c0.5,0.3,1,0.8,1.8,1.4l0.8,0.7
	c0.9,0.8,1.2,1,1.3,1.3c0.1,0.3,0.2,0.6,0.2,1.8v3.5c0,0.8,0,1.3-0.1,1.7c0,0.4-0.1,0.5-0.2,0.5c-0.1,0.1-0.2,0.1-0.5,0.2
	c-0.3,0-0.7,0.1-1.3,0.1v-3.3c0-0.9-0.7-1.7-1.7-1.7H6.5c-0.9,0-1.7,0.7-1.7,1.7v3.3c-0.6,0-1,0-1.3-0.1c-0.4,0-0.5-0.1-0.5-0.2
	c-0.1-0.1-0.1-0.2-0.2-0.5c-0.1-0.4-0.1-0.9-0.1-1.7V8.7c0-1.2,0-1.6,0.2-1.8C3,6.5,3.3,6.3,4.2,5.5L5,4.8z M5.6,16.4
	C5.6,16.4,5.6,16.4,5.6,16.4C5.7,16.4,5.7,16.4,5.6,16.4h4.2c0,0,0,0,0,0s0,0,0,0h0.5c0.7,0,1.4,0,1.9-0.1c0.5-0.1,1.1-0.2,1.5-0.7
	c0.4-0.4,0.6-0.9,0.7-1.5c0.1-0.5,0.1-1.1,0.1-1.9V8.7l0-0.2v0c0-1,0-1.7-0.3-2.4c-0.3-0.7-0.9-1.1-1.6-1.8l-0.1-0.1l-0.9-0.7
	C10.8,2.8,10.1,2.3,9.6,2C9,1.6,8.4,1.3,7.7,1.3S6.5,1.6,5.9,2C5.3,2.3,4.7,2.8,4,3.5l0,0L3.1,4.2L3,4.3C2.2,5,1.7,5.5,1.4,6.1
	C1.1,6.8,1.1,7.5,1.1,8.5l0,0.2l0,3.6c0,0.7,0,1.4,0.1,1.9c0.1,0.5,0.2,1.1,0.7,1.5c0.4,0.4,0.9,0.6,1.5,0.7
	c0.5,0.1,1.1,0.1,1.9,0.1H5.6z M9,14.7H6.5v-3.3H9V14.7z"/>
</svg>
