<?xml version="1.0" encoding="utf-8"?>
<!-- Generator: Adobe Illustrator 26.0.0, SVG Export Plug-In . SVG Version: 6.00 Build 0)  -->
<svg version="1.1" id="Layer_1" xmlns="http://www.w3.org/2000/svg" xmlns:xlink="http://www.w3.org/1999/xlink" x="0px" y="0px"
	 viewBox="0 0 34.8 29" style="enable-background:new 0 0 34.8 29;" xml:space="preserve">
<style type="text/css">
	.st0{fill:#DFDFDF;}
</style>
<path class="st0" d="M29.4,5H12.2c0,0,0,1.7,0,2h17.2c0.6,0,1,0.6,1,1.4v12.4l-3.5-4c-0.3-0.3-0.6-0.5-0.9-0.7
	c-0.4-0.2-0.7-0.2-1.1-0.2c-0.4,0-0.8,0.1-1.1,0.2c-0.4,0.2-0.7,0.4-0.9,0.7l-3.7,4.3l-3.7-4.2c-0.3-0.3-0.6-0.5-0.9-0.7
	c-0.4-0.2-0.7-0.2-1.1-0.2c-0.4,0-0.8,0.1-1.1,0.3c-0.4,0.2-0.7,0.4-0.9,0.7l-3.7,4.3v-9.5H5.6l0,12c0,0.1,0,0.3,0,0.4
	c0,0.2,0.1,0.4,0.1,0.6c0,0,0,0.1,0,0.2L5.7,25c0.1,0.2,0.2,0.4,0.3,0.5l0.1,0.2c0.1,0.1,0.2,0.3,0.3,0.4l0.2,0.1
	c0.2,0.1,0.3,0.3,0.5,0.4h0c0.4,0.3,1,0.4,1.5,0.4h20.6c0.5,0,0.9-0.1,1.3-0.3c0.4-0.2,0.8-0.5,1-0.8c0.3-0.3,0.5-0.7,0.6-1.1
	c0.1-0.3,0.1-0.6,0.2-0.8c0-0.1,0-0.2,0-0.3V8.4c0-0.8-0.2-1.7-0.8-2.3C31,5.5,30.2,5.1,29.4,5z"/>
<path class="st0" d="M18.1,13.6c1.1,0,2.1-0.9,2.1-2s-0.9-2-2.1-2c-1.1,0-2.1,0.9-2.1,2S17,13.6,18.1,13.6z"/>
<path class="st0" d="M6.5,10.1h1V7h3.1c0,0,0-0.7,0-1s0-1,0-1H7.6V2c0,0-0.8,0-1,0c-0.3,0-1.1,0-1,0v3H2.4c0,0,0,0.7,0,1s0,1,0,1
	h3.1v3C5.5,10.1,6.3,10.1,6.5,10.1z"/>
</svg>
