<?xml version="1.0" encoding="utf-8"?>
<!-- Generator: Adobe Illustrator 26.0.0, SVG Export Plug-In . SVG Version: 6.00 Build 0)  -->
<svg version="1.1" id="Layer_1" xmlns="http://www.w3.org/2000/svg" xmlns:xlink="http://www.w3.org/1999/xlink" x="0px" y="0px"
	 viewBox="0 0 42 49" style="enable-background:new 0 0 42 49;" xml:space="preserve">
<style type="text/css">
	.st0{fill:#DFDFDF;}
</style>
<path class="st0" d="M5.5,46.5c-0.2,0-0.4,0-0.6-0.1c-0.4-0.1-0.8-0.2-1.2-0.5c-0.6-0.4-1.1-1.1-1.3-1.8c-0.2-0.8-0.1-1.6,0.3-2.2
	l15.5-28l-4.7-3.2l-3.1,3.9c-0.5,0.6-1.2,1-1.9,1.1c-0.8,0.1-1.5-0.1-2.1-0.6s-1.1-1.2-1.2-1.9c-0.1-0.8,0.1-1.6,0.5-2.2l4-5.5
	c0.6-0.8,1.5-1.4,2.5-1.6c1-0.2,2,0,2.9,0.5l4.6,2.7L19,8.3l-4.6-2.7c-0.6-0.3-1.3-0.5-1.9-0.3c-0.7,0.1-1.2,0.5-1.6,1.1l-4,5.5
	c-0.2,0.3-0.3,0.8-0.3,1.2c0.1,0.4,0.3,0.8,0.6,1c0.3,0.2,0.7,0.3,1.1,0.3c0.4-0.1,0.8-0.3,1-0.6l3.9-4.9l6.8,4.7l-16,29
	c-0.2,0.4-0.3,0.8-0.2,1.2s0.4,0.8,0.7,1s0.5,0.3,0.7,0.3s0.5,0,0.7,0C6.1,45,6.3,45,6.5,44.8c0.2-0.1,0.3-0.3,0.5-0.5L17.3,27
	l1.2,0.7L8.2,45c-0.2,0.4-0.5,0.7-0.8,0.9s-0.7,0.4-1.1,0.5C6,46.5,5.7,46.5,5.5,46.5z"/>
<path class="st0" d="M31.7,25.2c-0.4,0-0.8-0.1-1.1-0.3l-6.2-3.7c-0.7-0.4-1.1-1-1.3-1.8c-0.2-0.7-0.1-1.5,0.3-2.2
	c0.2-0.3,0.4-0.6,0.8-0.9c0.3-0.2,0.7-0.4,1-0.5c0.4-0.1,0.8-0.1,1.2-0.1c0.4,0.1,0.8,0.2,1.1,0.4l2.6,1.6l-0.7,1.2l-2.6-1.6
	c-0.2-0.1-0.4-0.2-0.6-0.2s-0.4,0-0.6,0c-0.2,0.1-0.4,0.1-0.5,0.3c-0.2,0.1-0.3,0.3-0.4,0.5c-0.2,0.3-0.2,0.7-0.1,1.1
	s0.3,0.7,0.7,0.9l6.2,3.7c0.1,0.1,0.2,0.1,0.4,0.1c0.1,0,0.3,0,0.4-0.1s0.2-0.2,0.3-0.3c0.1-0.1,0.1-0.3,0.1-0.4L32,17.5
	c-0.1-0.8-0.3-1.6-0.7-2.3c-0.4-0.7-1-1.3-1.6-1.7l-1.5-1l0.8-1.2l1.5,1c0.8,0.6,1.5,1.3,2,2.2c0.5,0.9,0.8,1.8,0.9,2.8l0.5,5.4
	c0,0.4,0,0.8-0.2,1.2c-0.2,0.4-0.5,0.7-0.8,0.9C32.5,25,32.1,25.2,31.7,25.2L31.7,25.2z"/>
<path class="st0" d="M20.5,37.2c-0.5,0-0.9-0.1-1.4-0.3c-1.7-0.8-2.5-2.8-1.7-4.5l3.3-7.5c0.8-1.7,2.8-2.5,4.5-1.7s2.5,2.8,1.7,4.5
	l-3.3,7.5C23.1,36.4,21.8,37.2,20.5,37.2z M22,25.4L18.7,33c-0.4,1,0,2.2,1,2.6c1,0.4,2.2,0,2.6-1l3.3-7.5c0.4-1,0-2.2-1-2.6
	c-0.5-0.2-1-0.2-1.5,0C22.6,24.6,22.2,25,22,25.4L22,25.4z"/>
<path class="st0" d="M25.8,10.9c-2.6,0-4.7-2.1-4.7-4.7s2.1-4.7,4.7-4.7s4.7,2.1,4.7,4.7S28.4,10.9,25.8,10.9z M25.8,2.8
	c-1.8,0-3.3,1.5-3.3,3.3s1.5,3.3,3.3,3.3s3.3-1.5,3.3-3.3S27.7,2.8,25.8,2.8z"/>
<path class="st0" d="M33.7,46.6c-3.2,0-5.9-2.6-5.9-5.9s2.6-5.9,5.9-5.9s5.9,2.6,5.9,5.9S36.9,46.6,33.7,46.6z M33.7,36.2
	c-2.5,0-4.5,2-4.5,4.5s2,4.5,4.5,4.5s4.5-2,4.5-4.5S36.2,36.2,33.7,36.2z"/>
</svg>
