<?xml version="1.0" encoding="utf-8"?>
<!-- Generator: Adobe Illustrator 26.0.0, SVG Export Plug-In . SVG Version: 6.00 Build 0)  -->
<svg version="1.1" id="Layer_1" xmlns="http://www.w3.org/2000/svg" xmlns:xlink="http://www.w3.org/1999/xlink" x="0px" y="0px"
	 viewBox="0 0 18 19.1" style="enable-background:new 0 0 18 19.1;" xml:space="preserve">
<style type="text/css">
	.st0{fill-rule:evenodd;clip-rule:evenodd;fill:#DFDFDF;}
</style>
<path class="st0" d="M5.6,5.1c0-1.3,1.1-2.4,2.4-2.4s2.4,1.1,2.4,2.4S9.3,7.5,8,7.5S5.6,6.4,5.6,5.1z M8,1.1c-2.2,0-4,1.8-4,4
	c0,2.2,1.8,4,4,4s4-1.8,4-4C12,2.9,10.2,1.1,8,1.1z M8,10.7c0.4,0,0.7,0,1.1,0.1c-0.8,0.2-1.5,0.8-1.7,1.6c-1,0.1-2,0.4-2.8,0.9
	c-1,0.6-1.6,1.3-1.9,2.1c-0.1,0.4-0.6,0.6-1,0.5s-0.6-0.6-0.5-1c0.4-1.2,1.4-2.3,2.6-3C4.9,11.1,6.5,10.7,8,10.7z M12.8,8.9
	c0.6,0,1,0.4,1,1v2.2H16c0.6,0,1,0.4,1,1s-0.4,1-1,1h-2.2v2.2c0,0.6-0.4,1-1,1c-0.6,0-1-0.4-1-1v-2.2H9.6c-0.6,0-1-0.4-1-1
	s0.4-1,1-1h2.2V9.9C11.8,9.3,12.2,8.9,12.8,8.9z"/>
</svg>
