<?xml version="1.0" encoding="utf-8"?>
<!-- Generator: Adobe Illustrator 26.0.0, SVG Export Plug-In . SVG Version: 6.00 Build 0)  -->
<svg version="1.1" id="Layer_1" xmlns="http://www.w3.org/2000/svg" xmlns:xlink="http://www.w3.org/1999/xlink" x="0px" y="0px"
	 viewBox="0 0 15.2 17.5" style="enable-background:new 0 0 15.2 17.5;" xml:space="preserve">
<style type="text/css">
	.st0{fill-rule:evenodd;clip-rule:evenodd;fill:#DFDFDF;}
</style>
<path class="st0" d="M3.1,2.3h9c0.6,0,1,0.4,1,1v11c0,0.6-0.4,1-1,1h-9c-0.6,0-1-0.4-1-1v-11C2.1,2.7,2.5,2.3,3.1,2.3z M1.1,3.3
	c0-1.1,0.9-2,2-2h9c1.1,0,2,0.9,2,2v11c0,1.1-0.9,2-2,2h-9c-1.1,0-2-0.9-2-2V3.3z M10.1,6.3h-5h-1v-1h1h5h1v1H10.1z M5.1,9.3h5h1v-1
	h-1h-5h-1v1H5.1z M5.1,12.3h5h1v-1h-1h-5h-1v1H5.1z"/>
</svg>
