<?xml version="1.0" encoding="utf-8"?>
<!-- Generator: Adobe Illustrator 26.0.0, SVG Export Plug-In . SVG Version: 6.00 Build 0)  -->
<svg version="1.1" id="Layer_1" xmlns="http://www.w3.org/2000/svg" xmlns:xlink="http://www.w3.org/1999/xlink" x="0px" y="0px"
	 viewBox="0 0 18.2 18.2" style="enable-background:new 0 0 18.2 18.2;" xml:space="preserve">
<style type="text/css">
	.st0{fill-rule:evenodd;clip-rule:evenodd;fill:#DFDFDF;}
</style>
<path class="st0" d="M2.9,7.2C2.5,7.4,1.5,8,1.4,8.1c-0.1,0-0.1,0.1-0.2,0.2c0,0.1-0.1,0.2-0.1,0.3v1.1c0,0.1,0,0.2,0.1,0.3
	c0,0.1,0.1,0.1,0.2,0.2c0.2,0.1,1.2,0.7,1.5,0.9l0.5,1.2c-0.2,0.4-0.4,1.6-0.5,1.7c0,0.1,0,0.2,0,0.3c0,0.1,0.1,0.2,0.1,0.2l0.8,0.8
	c0.1,0.1,0.1,0.1,0.2,0.1c0.1,0,0.2,0,0.3,0l0,0C4.6,15.2,5.7,15,6,14.8l1.2,0.5c0.2,0.4,0.8,1.4,0.9,1.5c0,0.1,0.1,0.1,0.2,0.2
	c0.1,0,0.2,0.1,0.3,0.1h1.1c0.1,0,0.2,0,0.3-0.1c0.1,0,0.1-0.1,0.2-0.2c0.1-0.2,0.7-1.2,0.9-1.5l1.2-0.5c0.4,0.2,1.6,0.4,1.7,0.5
	c0.1,0,0.2,0,0.3,0c0.1,0,0.2-0.1,0.2-0.1l0.8-0.8c0.1-0.1,0.1-0.1,0.1-0.2c0-0.1,0-0.2,0-0.3l0,0c-0.1-0.2-0.3-1.3-0.5-1.7l0.5-1.2
	c0.4-0.2,1.4-0.8,1.5-0.9c0.1,0,0.1-0.1,0.2-0.2c0-0.1,0.1-0.2,0.1-0.3V8.6c0-0.1,0-0.2-0.1-0.3c0-0.1-0.1-0.1-0.2-0.2
	c-0.2-0.1-1.2-0.7-1.5-0.9L14.8,6c0.2-0.4,0.4-1.6,0.5-1.7c0-0.1,0-0.2,0-0.3c0-0.1-0.1-0.2-0.1-0.2l-0.8-0.8
	c-0.1-0.1-0.1-0.1-0.2-0.1c-0.1,0-0.2,0-0.3,0l0,0c-0.2,0.1-1.3,0.3-1.7,0.5L11,2.9c-0.2-0.4-0.8-1.4-0.9-1.5c0-0.1-0.1-0.1-0.2-0.2
	c-0.1,0-0.2-0.1-0.3-0.1H8.6c-0.1,0-0.2,0-0.3,0.1c-0.1,0-0.1,0.1-0.2,0.2C8,1.5,7.4,2.5,7.2,2.9L6,3.4C5.6,3.2,4.5,3,4.3,2.9
	c-0.1,0-0.2,0-0.3,0C4,2.9,3.9,3,3.8,3.1L3.1,3.8C3,3.9,2.9,4,2.9,4.1c0,0.1,0,0.2,0,0.3c0,0,0,0,0,0C3,4.6,3.2,5.7,3.4,6L2.9,7.2z
	 M9.1,12.4c1.8,0,3.3-1.5,3.3-3.3s-1.5-3.3-3.3-3.3S5.8,7.3,5.8,9.1S7.3,12.4,9.1,12.4z"/>
</svg>
