<?xml version="1.0" encoding="utf-8"?>
<!-- Generator: Adobe Illustrator 26.0.0, SVG Export Plug-In . SVG Version: 6.00 Build 0)  -->
<svg version="1.1" id="Layer_1" xmlns="http://www.w3.org/2000/svg" xmlns:xlink="http://www.w3.org/1999/xlink" x="0px" y="0px"
	 viewBox="0 0 16.3 18.6" style="enable-background:new 0 0 16.3 18.6;" xml:space="preserve">
<style type="text/css">
	.st0{fill-rule:evenodd;clip-rule:evenodd;fill:#DFDFDF;}
</style>
<path class="st0" d="M7.4,16.9H6.5c-1.1,0-1.9,0-2.6-0.1c-0.7-0.1-1.4-0.3-1.9-0.8c-0.5-0.5-0.7-1.1-0.8-1.9
	c-0.1-0.7-0.1-1.6-0.1-2.6v0V6.7v0c0-1.1,0-1.9,0.1-2.6c0.1-0.7,0.3-1.4,0.8-1.9c0.5-0.5,1.1-0.7,1.9-0.8c0.7-0.1,1.6-0.1,2.6-0.1h0
	h1.7h0c1.1,0,1.9,0,2.6,0.1c0.7,0.1,1.4,0.3,1.9,0.8c0.5,0.5,0.7,1.1,0.8,1.9c0.1,0.7,0.1,1.6,0.1,2.6v1.6H12V6.8
	c0-1.1,0-1.9-0.1-2.5c-0.1-0.5-0.2-0.8-0.4-1c-0.2-0.2-0.4-0.3-1-0.4C10,2.9,9.3,2.9,8.1,2.9H6.6c-1.1,0-1.9,0-2.5,0.1
	C3.6,3,3.3,3.2,3.2,3.3C3,3.5,2.9,3.8,2.8,4.3C2.7,4.9,2.7,5.6,2.7,6.8v4.7c0,1.1,0,1.9,0.1,2.5c0.1,0.5,0.2,0.8,0.4,1
	c0.2,0.2,0.4,0.3,1,0.4c0.6,0.1,1.3,0.1,2.5,0.1h0.8V16.9z M5,4.4c-0.4,0-0.8,0.3-0.8,0.8C4.3,5.6,4.6,6,5,6h3.1
	c0.4,0,0.8-0.3,0.8-0.8c0-0.4-0.3-0.8-0.8-0.8H5z M5,10.6c-0.4,0-0.8,0.3-0.8,0.8c0,0.4,0.3,0.8,0.8,0.8h2.3c0.4,0,0.8-0.3,0.8-0.8
	c0-0.4-0.3-0.8-0.8-0.8H5z M4.3,8.3c0-0.4,0.3-0.8,0.8-0.8h4.7c0.4,0,0.8,0.3,0.8,0.8c0,0.4-0.3,0.8-0.8,0.8H5
	C4.6,9.1,4.3,8.7,4.3,8.3z M11.6,12.2c-0.6,0-1.2,0.5-1.2,1.2c0,0.6,0.5,1.2,1.2,1.2c0.6,0,1.2-0.5,1.2-1.2
	C12.8,12.7,12.3,12.2,11.6,12.2z M8.9,13.4c0-1.5,1.2-2.7,2.7-2.7c1.5,0,2.7,1.2,2.7,2.7c0,0.5-0.1,0.9-0.3,1.3l0.9,0.9
	c0.3,0.3,0.3,0.8,0,1.1c-0.3,0.3-0.8,0.3-1.1,0l-0.9-0.9c-0.4,0.2-0.8,0.3-1.3,0.3C10.1,16.1,8.9,14.9,8.9,13.4z"/>
</svg>
