<?xml version="1.0" encoding="utf-8"?>
<!-- Generator: Adobe Illustrator 26.0.0, SVG Export Plug-In . SVG Version: 6.00 Build 0)  -->
<svg version="1.1" id="Layer_1" xmlns="http://www.w3.org/2000/svg" xmlns:xlink="http://www.w3.org/1999/xlink" x="0px" y="0px"
	 viewBox="0 0 18.5 18.5" style="enable-background:new 0 0 18.5 18.5;" xml:space="preserve">
<style type="text/css">
	.st0{fill:#DFDFDF;}
</style>
<path class="st0" d="M16.4,2.8H14V2c0-0.2-0.1-0.4-0.2-0.6c-0.1-0.2-0.4-0.2-0.6-0.2h-8C5,1.2,4.8,1.3,4.7,1.5
	C4.5,1.6,4.4,1.8,4.4,2v0.8H2c-0.2,0-0.4,0.1-0.6,0.2C1.3,3.2,1.2,3.4,1.2,3.6V6c0,0.8,0.3,1.7,0.9,2.3c0.6,0.6,1.4,0.9,2.3,0.9h1.2
	c0.7,0.8,1.7,1.3,2.8,1.5v1.7H7.6c-0.6,0-1.2,0.3-1.7,0.7c-0.5,0.5-0.7,1.1-0.7,1.7v1.6c0,0.2,0.1,0.4,0.2,0.6
	c0.2,0.1,0.4,0.2,0.6,0.2h6.4c0.2,0,0.4-0.1,0.6-0.2c0.1-0.2,0.2-0.4,0.2-0.6v-1.6c0-0.6-0.3-1.2-0.7-1.7c-0.5-0.4-1.1-0.7-1.7-0.7
	H10v-1.7c1.1-0.2,2-0.7,2.8-1.5H14c0.8,0,1.7-0.3,2.3-0.9c0.6-0.6,0.9-1.4,0.9-2.3V3.6c0-0.2-0.1-0.4-0.2-0.6
	C16.9,2.9,16.7,2.8,16.4,2.8z M4.4,7.6C4,7.6,3.6,7.5,3.3,7.2C3,6.9,2.8,6.5,2.8,6V4.4h1.6V6c0,0.5,0.1,1.1,0.3,1.6H4.4z M10.8,14
	c0.2,0,0.4,0.1,0.6,0.2c0.1,0.2,0.2,0.4,0.2,0.6v0.8H6.8v-0.8c0-0.2,0.1-0.4,0.2-0.6C7.2,14.1,7.4,14,7.6,14H10.8z M12.4,6
	c0,0.8-0.3,1.7-0.9,2.3c-0.6,0.6-1.4,0.9-2.3,0.9S7.6,8.9,7,8.3C6.4,7.7,6,6.9,6,6V2.8h6.4V6z M15.6,6c0,0.4-0.2,0.8-0.5,1.1
	c-0.3,0.3-0.7,0.5-1.1,0.5h-0.3C14,7.1,14,6.6,14,6V4.4h1.6V6z"/>
</svg>
